<svg width="48" height="40" viewBox="0 0 48 40" fill="none" xmlns="http://www.w3.org/2000/svg">
<g clip-path="url(#clip0)">
<path d="M5.25006 38.7499V31.604H15.2501V38.7499H5.25006ZM16.5002 38.7499V31.604H31.2391V38.7499H27.2737V36.835C27.2737 34.9579 25.7464 33.4306 23.8698 33.4306C21.9928 33.4306 20.4655 34.9579 20.4655 36.835V38.7499H16.5002ZM32.4891 38.7499V31.604H42.4891V38.7499H32.4891ZM16.5002 30.354V28.4472H31.2391V30.354H16.5002ZM32.4891 27.1971H28.3694H19.3698H15.2501V30.354H4V40H43.0652H43.7392V30.354H43.0652H32.4891V27.1971Z" fill="#B3B3B3"/>
<path d="M23.8698 15.5655C21.9928 15.5655 20.4655 17.0928 20.4655 18.9698V20.385H21.7155V18.9698C21.7155 17.7819 22.6818 16.8155 23.8698 16.8155C25.0577 16.8155 26.0241 17.7819 26.0241 18.9698V20.385H27.2737V18.9698C27.2737 17.0928 25.7464 15.5655 23.8698 15.5655Z" fill="#B3B3B3"/>
<path d="M21.1197 23.0175H19.8696V26.5491H21.1197V23.0175Z" fill="#B3B3B3"/>
<path d="M23.3697 23.0175H22.1196V26.5491H23.3697V23.0175Z" fill="#B3B3B3"/>
<path d="M25.6197 23.0175H24.3696V26.5491H25.6197V23.0175Z" fill="#B3B3B3"/>
<path d="M27.8697 23.0175H26.6196V26.5491H27.8697V23.0175Z" fill="#B3B3B3"/>
<path d="M24.0911 -1.64685H23.6487L23.5639 -0.0980835L23.5011 1.05072L23.501 1.05084L23.0013 10.1827L23.0013 10.1832L22.9926 10.3431L22.9539 11.0495L22.7449 14.8695H24.9949L24.7859 11.0495L24.7472 10.3431L24.6922 9.33783V9.33771L24.2191 0.691833V0.691772L24.1595 -0.395874L24.0911 -1.64685Z" fill="#B3B3B3"/>
<path d="M12.0001 33.5988H10.75V36.7155H12.0001V33.5988Z" fill="#B3B3B3"/>
<path d="M14.2501 33.5988H13V36.7155H14.2501V33.5988Z" fill="#B3B3B3"/>
<path d="M7.50006 33.5988H6.25V36.7155H7.50006V33.5988Z" fill="#B3B3B3"/>
<path d="M9.75006 33.5988H8.5V36.7155H9.75006V33.5988Z" fill="#B3B3B3"/>
<path d="M34.7391 33.5988H33.489V36.7155H34.7391V33.5988Z" fill="#B3B3B3"/>
<path d="M36.9892 33.5988H35.7391V36.7155H36.9892V33.5988Z" fill="#B3B3B3"/>
<path d="M39.2392 33.5988H37.9891V36.7155H39.2392V33.5988Z" fill="#B3B3B3"/>
<path d="M41.4892 33.5988H40.2391V36.7155H41.4892V33.5988Z" fill="#B3B3B3"/>
<path d="M28.3694 21.0719H19.3698V22.322H28.3694V21.0719Z" fill="#B3B3B3"/>
</g>
<defs>
<clipPath id="clip0">
<rect width="48" height="40" fill="white"/>
</clipPath>
</defs>
</svg>
