<svg width="48" height="40" viewBox="0 0 48 40" fill="none" xmlns="http://www.w3.org/2000/svg">
<g clip-path="url(#clip0)">
<path d="M9.5108 38.7499V31.604H19.5108V38.7499H9.5108ZM20.7609 38.7499V31.604H35.4998V38.7499H31.5345V36.835C31.5345 34.9579 30.0071 33.4306 28.1306 33.4306C26.2535 33.4306 24.7262 34.9579 24.7262 36.835V38.7499H20.7609ZM36.7499 38.7499V31.604H46.7499V38.7499H36.7499ZM20.7609 30.354V28.4472H35.4998V30.354H20.7609ZM36.7499 27.1971H32.6302H23.6305H19.5108V30.354H8.26074V40H47.326H47.9999V30.354H47.326H36.7499V27.1971Z" fill="#B3B3B3"/>
<path d="M28.1305 15.5655C26.2535 15.5655 24.7262 17.0928 24.7262 18.9698V20.385H25.9763V18.9698C25.9763 17.7819 26.9426 16.8155 28.1305 16.8155C29.3185 16.8155 30.2848 17.7819 30.2848 18.9698V20.385H31.5345V18.9698C31.5345 17.0928 30.0071 15.5655 28.1305 15.5655Z" fill="#B3B3B3"/>
<path d="M25.3804 23.0175H24.1304V26.5491H25.3804V23.0175Z" fill="#B3B3B3"/>
<path d="M27.6304 23.0175H26.3804V26.5491H27.6304V23.0175Z" fill="#B3B3B3"/>
<path d="M29.8804 23.0175H28.6304V26.5491H29.8804V23.0175Z" fill="#B3B3B3"/>
<path d="M32.1304 23.0175H30.8804V26.5491H32.1304V23.0175Z" fill="#B3B3B3"/>
<path d="M28.3518 -1.64685H27.9094L27.8247 -0.0980835L27.7618 1.05072L27.7618 1.05084L27.2621 10.1827L27.2621 10.1832L27.2533 10.3431L27.2147 11.0495L27.0056 14.8695H29.2556L29.0466 11.0495L29.0079 10.3431L28.9529 9.33783V9.33771L28.4798 0.691833V0.691772L28.4203 -0.395874L28.3518 -1.64685Z" fill="#B3B3B3"/>
<path d="M16.2608 33.5988H15.0107V36.7155H16.2608V33.5988Z" fill="#B3B3B3"/>
<path d="M18.5108 33.5988H17.2607V36.7155H18.5108V33.5988Z" fill="#B3B3B3"/>
<path d="M11.7608 33.5988H10.5107V36.7155H11.7608V33.5988Z" fill="#B3B3B3"/>
<path d="M14.0108 33.5988H12.7607V36.7155H14.0108V33.5988Z" fill="#B3B3B3"/>
<path d="M38.9998 33.5988H37.7498V36.7155H38.9998V33.5988Z" fill="#B3B3B3"/>
<path d="M41.2499 33.5988H39.9999V36.7155H41.2499V33.5988Z" fill="#B3B3B3"/>
<path d="M43.4999 33.5988H42.2499V36.7155H43.4999V33.5988Z" fill="#B3B3B3"/>
<path d="M45.7499 33.5988H44.4999V36.7155H45.7499V33.5988Z" fill="#B3B3B3"/>
<path d="M32.6301 21.0719H23.6305V22.322H32.6301V21.0719Z" fill="#B3B3B3"/>
</g>
<defs>
<clipPath id="clip0">
<rect width="48" height="40" fill="white"/>
</clipPath>
</defs>
</svg>
