<svg width="48" height="32" viewBox="0 0 48 32" fill="none" xmlns="http://www.w3.org/2000/svg">
<path d="M14.4928 30.9342C15.021 30.1154 15.6838 29.5363 16.2448 29.0602C16.9114 28.4945 17.4871 28.0063 17.4703 27.3207C17.4595 26.8934 17.2249 26.4916 16.7178 26.0457C16.9114 25.6003 17.2573 24.8013 17.4892 24.2471C17.8196 24.1927 18.1636 24.1672 18.5177 24.1672C21.2255 24.1672 24.5331 25.6534 26.9869 27.0129C29.5099 28.41 31.6508 29.9498 32.8543 30.9342H14.4928ZM23.0048 24.1295C22.8568 24.0768 22.7102 24.0251 22.5632 23.9759C22.8219 23.7534 23.1514 23.4641 23.4178 23.2101L23.3023 22.581L23.1324 22.4745C23.2234 22.4977 23.3001 22.4986 23.3833 22.509C23.4485 22.797 23.586 23.0527 23.796 23.2506C23.3669 23.6353 22.9155 24.0104 22.9099 24.0151L23.0048 24.1295ZM18.1882 20.5427L18.1071 20.462V19.701H19.1049L19.1395 19.8273H18.5698L18.1882 20.2094V20.5427V20.5427ZM23.2501 15C22.8081 15 22.4507 15.3579 22.4507 15.7999C22.4507 16.0004 22.5313 16.1785 22.6537 16.3195L22.0263 18.2112L21.5749 17.8632C21.7336 17.4652 21.7655 16.9659 21.5012 16.3096L20.907 16.0353C20.2757 16.2457 19.1744 16.7391 19.1274 16.7598L19.5185 17.6312C19.5275 17.6282 20.1739 17.338 20.7392 17.1146C20.8013 17.639 20.468 17.8865 20.0105 18.2245C19.7436 18.4221 19.4547 18.6406 19.2736 18.9369H17.7251L17.343 19.3193V20.6199L17.4547 20.8903L17.7747 21.2098L18.1882 20.7967V21.2158V21.216V21.5107L18.2995 21.7806L18.6194 22.1006L19.1593 21.5599L18.9519 21.3525V20.8342V20.5914H19.4767H19.6384C19.8959 20.8314 20.2287 21.0546 20.6053 21.2703C21.0154 21.5053 21.4774 21.7314 21.9505 21.9604L22.091 22.0295C22.1247 22.4064 22.2751 22.7388 22.5356 22.9837C22.1648 23.317 21.7952 23.6271 21.693 23.712C20.5824 23.4032 19.4959 23.2167 18.4824 23.2167C17.9845 23.2167 17.5042 23.2617 17.0472 23.3593L16.8006 23.4119L16.7049 23.6456C16.403 24.3834 15.698 25.9944 15.698 25.9944L15.5475 26.3367L15.8451 26.5649C16.444 27.0245 16.5134 27.263 16.5152 27.3445C16.5208 27.5734 16.0663 27.9589 15.6264 28.3315C14.9438 28.911 14.0388 29.7092 13.3976 30.9342H13V31.8893H13.4268H17.427H21.2207H35.5545V30.9342H34.2953C33.4467 30.1135 30.6799 27.9652 27.3824 26.1414C26.6942 25.7608 25.9828 25.3943 25.2609 25.0569C24.7353 24.8113 24.2042 24.5811 23.6722 24.3722C23.9417 24.1432 24.357 23.7831 24.6783 23.4766L24.5627 22.8483C24.3354 22.7531 24.2212 22.6051 24.1612 22.4503L24.3924 22.3615C24.5991 22.2538 24.7672 22.1076 24.9034 21.9457C24.98 21.8546 25.0466 21.7586 25.1043 21.6617C25.2371 21.7875 25.3264 21.9605 25.4 22.1939C25.4671 22.4068 25.5212 22.6699 25.5833 22.9932C25.6747 23.4708 25.7825 24.0352 26.0139 24.6222C26.0938 24.8248 26.1884 25.0301 26.3022 25.2355L27.1378 24.7719C27.0212 24.5616 26.9283 24.3492 26.8522 24.1382C26.687 23.6805 26.6006 23.2285 26.5212 22.8138C26.517 22.7919 26.5128 22.7701 26.5086 22.7482C26.4199 22.2865 26.3224 21.8228 26.1121 21.4325C25.8747 20.9923 25.4937 20.6456 24.8188 20.5004L24.8055 20.4513C24.7502 20.3336 24.6705 20.2296 24.5963 20.1227L25.0426 19.4453C24.2863 18.9477 24.2721 18.5234 24.2544 17.9861C24.2384 17.5182 24.2121 16.9443 23.6235 16.4941C23.8732 16.3587 24.0496 16.1035 24.0496 15.7999C24.0496 15.3579 23.6917 15 23.2501 15Z" fill="#B3B3B3"/>
</svg>
