<svg width="48" height="32" viewBox="0 0 48 32" fill="none" xmlns="http://www.w3.org/2000/svg">
<g clip-path="url(#clip0)">
<path d="M12.152 24.7188H10.9519V29.9872H12.152V24.7188Z" fill="#B3B3B3"/>
<path d="M15.2589 24.7188H14.0587V29.9872H15.2589V24.7188Z" fill="#B3B3B3"/>
<path d="M18.3666 24.7188H17.1665V29.9872H18.3666V24.7188Z" fill="#B3B3B3"/>
<path d="M21.4737 24.7188H20.2736V29.9872H21.4737V24.7188Z" fill="#B3B3B3"/>
<path d="M24.5811 24.7188H23.381V29.9872H24.5811V24.7188Z" fill="#B3B3B3"/>
<path d="M27.6879 24.7188H26.4878V29.9872H27.6879V24.7188Z" fill="#B3B3B3"/>
<path d="M30.7953 24.7188H29.5956V29.9872H30.7953V24.7188Z" fill="#B3B3B3"/>
<path d="M33.9028 24.7188H32.7026V29.9872H33.9028V24.7188Z" fill="#B3B3B3"/>
<path d="M37.0097 24.7188H35.8096V29.9872H37.0097V24.7188Z" fill="#B3B3B3"/>
<path d="M23.9807 15.9825L12.2261 18.7972V21.8143H12.2476H13.4262V19.744L23.9807 17.2166L34.5356 19.744V21.8143H35.7353V18.7972L23.9807 15.9825Z" fill="#B3B3B3"/>
<path d="M23.9808 17.9969C21.8761 17.9969 20.1635 19.7092 20.1635 21.8143H21.3636C21.3636 20.3712 22.5381 19.1971 23.9808 19.1971C25.4235 19.1971 26.598 20.3712 26.598 21.8143H27.7981C27.7981 19.7092 26.0855 17.9969 23.9808 17.9969Z" fill="#B3B3B3"/>
<path d="M39.5398 30.8466H38.2565H9.75545H8.422V32.0467H39.5398V30.8466Z" fill="#B3B3B3"/>
<path d="M38.2255 22.6783H35.7354H12.2477H9.73645V23.8784H9.75549H38.2255V23.171V22.6783Z" fill="#B3B3B3"/>
<path d="M3.60082 18.2309H2.40194L2.33239 20.3525H1.48621V21.5527H2.29266L2.17962 24.9883H1.48621V26.1884H2.1403L2.01942 29.8754H3.98335L3.86246 26.1884H4.51615V24.9883H3.82314L3.71014 21.5527H4.51615V20.3525H3.67038L3.60082 18.2309Z" fill="#B3B3B3"/>
<path d="M6.00231 30.8466H0V32.0467H6.00231V30.8466Z" fill="#B3B3B3"/>
<path d="M4.21523 16.2338H1.78723V17.4339H4.21523V16.2338Z" fill="#B3B3B3"/>
<path d="M3.00136 14C2.60146 14 2.27771 14.3241 2.27771 14.724C2.27771 15.1235 2.60146 15.4472 3.00136 15.4472C3.40085 15.4472 3.72458 15.1235 3.72458 14.724C3.72458 14.3241 3.40085 14 3.00136 14Z" fill="#B3B3B3"/>
<path d="M45.6805 18.2309H44.4812L44.4112 20.3525H43.5654V21.5527H44.3719L44.2593 24.9883H43.5654V26.1884H44.2199L44.0986 29.8754H46.0626L45.9417 26.1884H46.5954V24.9883H45.9024L45.7894 21.5527H46.5954V20.3525H45.75L45.6805 18.2309Z" fill="#B3B3B3"/>
<path d="M48.082 30.8466H42.0792V32.0467H48.082V30.8466Z" fill="#B3B3B3"/>
<path d="M46.2943 16.2338H43.8663V17.4339H46.2943V16.2338Z" fill="#B3B3B3"/>
<path d="M45.0806 14C44.6807 14 44.3569 14.3241 44.3569 14.724C44.3569 15.1235 44.6807 15.4472 45.0806 15.4472C45.4801 15.4472 45.8046 15.1235 45.8046 14.724C45.8046 14.3241 45.4801 14 45.0806 14Z" fill="#B3B3B3"/>
</g>
<defs>
<clipPath id="clip0">
<rect width="48" height="32" fill="white"/>
</clipPath>
</defs>
</svg>
