<svg width="48" height="32" viewBox="0 0 48 32" fill="none" xmlns="http://www.w3.org/2000/svg">
<path d="M2.02277 30.6836L3.25385 28.2214H44.7466L45.9777 30.6836H2.02277ZM14.8114 26.9714V24.6205H16.6419V26.9714H14.8114ZM35.0904 26.9714V25.7072L36.0331 24.3259H37.4469V24.3234H39.9777V24.3259H41.392L42.3346 25.7072V26.9714H35.0904ZM24.9076 26.9714V24.0245H26.7381V26.9714H24.9076ZM37.4469 23.0734V21.5344L38.6763 20.9445L39.9777 21.5421V23.0734H37.4469ZM14.8114 23.3705V20.9307H16.6419V23.3705H14.8114ZM24.9076 22.7745V20.7018C24.9076 20.1973 25.3181 19.7867 25.8226 19.7867C26.3275 19.7867 26.7381 20.1973 26.7381 20.7018V22.7745H24.9076ZM14.8114 19.681V17.6083C14.8114 17.1038 15.2219 16.6929 15.7269 16.6929C16.2314 16.6929 16.6419 17.1038 16.6419 17.6083V19.681H14.8114ZM15.7264 15.4427C14.5324 15.4427 13.5614 16.4138 13.5614 17.6083V26.9714H2.48114L0 31.9337H40.8935H43.2031H47.4319H48L47.4565 30.8468L45.5701 27.074L45.5189 26.9714H43.7585H43.5847V25.3212L42.0518 23.0759H41.2278V20.741L38.6646 19.5634L36.1969 20.7488V23.0759H35.3729L33.8408 25.3212V26.9714H27.9881V20.7018C27.9881 19.5082 27.0166 18.5366 25.8226 18.5366C24.6286 18.5366 23.6576 19.5082 23.6576 20.7018V26.9714H17.8919V17.6083C17.8919 16.4138 16.92 15.4427 15.7264 15.4427Z" fill="#B3B3B3"/>
<path d="M15.7531 12.3593C15.0697 12.3593 14.5151 12.9133 14.5151 13.5964C14.5151 14.2798 15.0697 14.8344 15.7531 14.8344C16.4362 14.8344 16.9907 14.2798 16.9907 13.5964C16.9907 12.9133 16.4362 12.3593 15.7531 12.3593Z" fill="#B3B3B3"/>
<path d="M15.8484 2H15.6048L15.3407 7.0459L15.235 9.0647L15.1077 11.4965H16.3456L16.2142 8.98657L16.1097 6.98926L15.8484 2Z" fill="#B3B3B3"/>
<path d="M25.8489 15.4528C25.1655 15.4528 24.6118 16.0068 24.6118 16.6903C24.6118 17.3737 25.1655 17.9279 25.8489 17.9279C26.5324 17.9279 27.0861 17.3737 27.0861 16.6903C27.0861 16.0068 26.5324 15.4528 25.8489 15.4528Z" fill="#B3B3B3"/>
</svg>
