<svg width="48" height="40" viewBox="0 0 48 40" fill="none" xmlns="http://www.w3.org/2000/svg">
<path d="M21.25 23.0419H20V29.0472H21.25V23.0419Z" fill="#B3B3B3"/>
<path d="M23.5001 23.0419H22.25V29.0472H23.5001V23.0419Z" fill="#B3B3B3"/>
<path d="M25.7501 23.0419H24.5V29.0472H25.7501V23.0419Z" fill="#B3B3B3"/>
<path d="M28.0001 23.0419H26.75V29.0472H28.0001V23.0419Z" fill="#B3B3B3"/>
<path d="M24.2215 3.83496H23.7791L23.6943 5.38373L23.6314 6.53254L23.6314 6.53266L23.1317 15.6646L23.1317 15.665L23.1229 15.825L23.0843 16.5313L22.8752 20.3513H25.1252L24.9162 16.5313L24.8776 15.825L24.8225 14.8196V14.8195L24.3494 6.17365V6.17359L24.2899 5.08594L24.2215 3.83496Z" fill="#B3B3B3"/>
<path d="M28.0001 21.0713H20V22.3214H28.0001V21.0713Z" fill="#B3B3B3"/>
<path d="M22.3968 32.0844H21.1467V38.0898H22.3968V32.0844Z" fill="#B3B3B3"/>
<path d="M8.8963 32.0844H7.64624V38.0898H8.8963V32.0844Z" fill="#B3B3B3"/>
<path d="M31.3968 32.0844H30.1467V38.0898H31.3968V32.0844Z" fill="#B3B3B3"/>
<path d="M17.8965 32.0844H16.6465V38.0898H17.8965V32.0844Z" fill="#B3B3B3"/>
<path d="M26.8968 32.0844H25.6467V38.0898H26.8968V32.0844Z" fill="#B3B3B3"/>
<path d="M13.3964 32.0844H12.1464V38.0898H13.3964V32.0844Z" fill="#B3B3B3"/>
<path d="M35.8968 32.0844H34.6467V38.0898H35.8968V32.0844Z" fill="#B3B3B3"/>
<path d="M24.6468 32.0844H23.3967V38.0898H24.6468V32.0844Z" fill="#B3B3B3"/>
<path d="M11.1464 32.0844H9.89636V38.0898H11.1464V32.0844Z" fill="#B3B3B3"/>
<path d="M33.6468 32.0844H32.3967V38.0898H33.6468V32.0844Z" fill="#B3B3B3"/>
<path d="M20.1467 32.0844H18.8966V38.0898H20.1467V32.0844Z" fill="#B3B3B3"/>
<path d="M29.1468 32.0844H27.8967V38.0898H29.1468V32.0844Z" fill="#B3B3B3"/>
<path d="M15.6465 32.0844H14.3965V38.0898H15.6465V32.0844Z" fill="#B3B3B3"/>
<path d="M38.1468 32.0844H36.8967V38.0898H38.1468V32.0844Z" fill="#B3B3B3"/>
<path d="M40.3968 32.0844H39.1467V38.0898H40.3968V32.0844Z" fill="#B3B3B3"/>
<rect x="4.32397" y="30.7992" width="39.3519" height="8.57582" stroke="#B3B3B3" stroke-width="1.25"/>
</svg>
