<svg width="48" height="24" viewBox="0 0 48 24" fill="none" xmlns="http://www.w3.org/2000/svg">
<path d="M0.708276 23.4L1.50828 18.6H38.4V22C38.4 22.7732 37.7732 23.4 37 23.4H0.708276Z" stroke="#B3B3B3" stroke-width="1.2"/>
<rect width="6" height="1" transform="matrix(-1 0 0 1 15 16)" fill="#B3B3B3"/>
<rect width="8" height="2" transform="matrix(-1 0 0 1 16 13)" fill="#B3B3B3"/>
<path d="M18.5 9H21L20.5 17H18L18.5 9Z" fill="#B3B3B3"/>
<path d="M22.5 9H25L24.5 17H22L22.5 9Z" fill="#B3B3B3"/>
<path d="M26.5 9H29L28.5 17H26L26.5 9Z" fill="#B3B3B3"/>
<rect x="5" y="20" width="1" height="1" fill="#B3B3B3"/>
<rect x="8" y="20" width="1" height="1" fill="#B3B3B3"/>
<rect x="11" y="20" width="1" height="1" fill="#B3B3B3"/>
<rect x="14" y="20" width="1" height="1" fill="#B3B3B3"/>
<rect x="26" y="20" width="1" height="1" fill="#B3B3B3"/>
<rect x="17" y="20" width="1" height="1" fill="#B3B3B3"/>
<rect x="29" y="20" width="1" height="1" fill="#B3B3B3"/>
<rect x="20" y="20" width="1" height="1" fill="#B3B3B3"/>
<rect x="32" y="20" width="1" height="1" fill="#B3B3B3"/>
<rect x="23" y="20" width="1" height="1" fill="#B3B3B3"/>
<rect x="35" y="20" width="1" height="1" fill="#B3B3B3"/>
<path d="M14 2H15V17H13L14 2Z" fill="#B3B3B3"/>
</svg>
