<svg width="48" height="32" viewBox="0 0 48 32" fill="none" xmlns="http://www.w3.org/2000/svg">
<path d="M21.2621 30.7499V24.6053H38.3403V30.7499H36.9385V28.4283H36.174V30.7499H33.9882V28.4283H33.2236V30.7499H30.6278V28.2727C30.6278 27.9277 30.348 27.6479 30.003 27.6479C29.6576 27.6479 29.3777 27.9277 29.3777 28.2727V30.7499H26.5741V28.4283H25.8096V30.7499H23.6238V28.4283H22.8593V30.7499H21.2621ZM26.4365 23.3553L30.1172 21.2851L33.7985 23.3553H26.4365ZM25.2434 22.5916V18.2248H34.9907V22.5916L30.1172 19.8504L25.2434 22.5916ZM25.2434 16.9748V14.1328L27.9698 14.213V16.9748H25.2434ZM32.2651 16.9748V14.213L34.9907 14.1328V16.9748H32.2651ZM29.2195 16.9748V12.9991L28.0048 12.9633C28.2747 12.6468 28.4468 12.2497 28.4817 11.8111H31.7524C31.7873 12.2497 31.9594 12.6468 32.2297 12.9633L31.015 12.9991V16.9748H29.2195ZM26.465 12.4338C26.0329 12.4338 25.6815 12.0823 25.6815 11.6507C25.6815 11.5373 25.9742 11.2354 26.1489 11.0544C26.2515 10.9492 26.3593 10.8375 26.465 10.7176C26.5702 10.8375 26.678 10.9492 26.7806 11.0544C26.9553 11.2354 27.248 11.5373 27.248 11.6507C27.248 12.0823 26.8962 12.4338 26.465 12.4338ZM33.7695 12.4338C33.3379 12.4338 32.9865 12.0823 32.9865 11.6507C32.9865 11.5373 33.2788 11.2354 33.4535 11.0544C33.5561 10.9492 33.6639 10.8375 33.7695 10.7176C33.8748 10.8375 33.983 10.9492 34.0852 11.0544C34.2603 11.2354 34.5526 11.5373 34.5526 11.6507C34.5526 12.0823 34.2012 12.4338 33.7695 12.4338ZM30.003 8.15704C29.5714 8.15704 29.2195 7.80573 29.2195 7.37408C29.2195 7.26068 29.5123 6.95831 29.687 6.77765C29.7896 6.67206 29.8973 6.56036 30.003 6.44086C30.1082 6.56036 30.216 6.67206 30.3186 6.77765C30.4937 6.95831 30.7861 7.26068 30.7861 7.37408C30.7861 7.80573 30.4346 8.15704 30.003 8.15704ZM30.385 1.95343H29.6205V2.83002H29.0742V3.59454H29.6205V4.48822V5.03607H29.3777C29.3777 5.0672 29.3736 5.09906 29.3657 5.13141C29.3073 5.37311 29.0444 5.64435 28.7896 5.9079C28.5643 6.14032 28.3217 6.39081 28.1594 6.68304H28.1594C28.0446 6.88983 27.9698 7.11737 27.9698 7.37408C27.9698 8.2757 28.5637 9.03326 29.3777 9.29889V10.5611H28.0199C27.9091 10.4295 27.7927 10.3036 27.678 10.185C27.389 9.88617 27.0898 9.57745 27.0898 9.31268H26.847V7.87115H27.3934V7.10675H26.847V6.22968H26.0825V7.10675H25.5362V7.87115H26.0825V9.31268H25.8397C25.8397 9.57745 25.5405 9.88617 25.2512 10.185C24.8669 10.5814 24.4314 11.0311 24.4314 11.6507C24.4314 12.1104 24.5901 12.5295 24.8484 12.8705L23.9938 12.8455V23.2949L23.8859 23.3553H20.012V30.7499H19V32H20.012H39.5903H40.6653V30.7499H39.5903V23.3553H36.3481L36.2408 23.2949V13.1131V13.1111V12.8455L35.9554 12.8539H35.9536L35.3857 12.8705C35.4653 12.7653 35.5355 12.6525 35.5944 12.5335C35.5947 12.5331 35.5948 12.5328 35.5948 12.5328C35.7268 12.2661 35.8027 11.968 35.8027 11.6507C35.8027 11.0311 35.3671 10.5814 34.983 10.185C34.6936 9.88617 34.3943 9.57745 34.3943 9.31268H34.1516V8.73822V7.87115H34.6984V7.50787V7.10675H34.1516V6.22968H33.3871V6.85223V7.10675H32.8412V7.69574V7.87115H33.0655H33.3871V8.12482V9.31268H33.1443C33.1443 9.54156 32.9207 9.80341 32.6734 10.0632C32.6732 10.0634 32.673 10.0635 32.673 10.0635C32.6342 10.1043 32.5951 10.1447 32.5562 10.185C32.4415 10.3036 32.325 10.4295 32.2137 10.5611H30.6278V9.29889C30.8618 9.2226 31.0775 9.10577 31.2662 8.95648C31.2662 8.95648 31.2665 8.95624 31.2667 8.95612C31.7346 8.58588 32.0361 8.01654 32.0361 7.37408C32.0361 7.25848 32.021 7.14886 31.9938 7.04437C31.8755 6.58856 31.5289 6.23065 31.2164 5.9079C31.1686 5.85858 31.1204 5.8089 31.0734 5.75909C30.8362 5.50824 30.6278 5.25665 30.6278 5.03607H30.385V4.565V3.59454H30.931V2.83002H30.385V1.95343Z" fill="#B3B3B3"/>
<path d="M23.6238 25.3828H22.8593V27.3413H23.6238V25.3828Z" fill="#B3B3B3"/>
<path d="M26.5741 25.3828H25.8096V27.3413H26.5741V25.3828Z" fill="#B3B3B3"/>
<path d="M33.9882 25.3828H33.2236V27.3413H33.9882V25.3828Z" fill="#B3B3B3"/>
<path d="M36.9385 25.3828H36.174V27.3413H36.9385V25.3828Z" fill="#B3B3B3"/>
<path d="M26.847 14.9024H26.0825V16.4608H26.847V14.9024Z" fill="#B3B3B3"/>
<path d="M26.847 18.5991H26.0825V20.4576H26.847V18.5991Z" fill="#B3B3B3"/>
<path d="M34.1516 14.9024H33.3871V16.4608H34.1516V14.9024Z" fill="#B3B3B3"/>
<path d="M34.1516 18.5991H33.3871V20.4576H34.1516V18.5991Z" fill="#B3B3B3"/>
<path d="M30.003 24.852C29.4006 24.852 28.9108 25.3419 28.9108 25.9438C28.9108 26.5457 29.4006 27.0356 30.003 27.0356C30.605 27.0356 31.0948 26.5457 31.0948 25.9438C31.0948 25.3419 30.605 24.852 30.003 24.852Z" fill="#B3B3B3"/>
</svg>
