<svg width="48" height="32" viewBox="0 0 48 32" fill="none" xmlns="http://www.w3.org/2000/svg">
<path d="M15.4294 30.7499V24.6053H32.5076V30.7499H31.1058V28.4283H30.3413V30.7499H28.1555V28.4283H27.391V30.7499H24.7952V28.2727C24.7952 27.9277 24.5153 27.6479 24.1703 27.6479C23.825 27.6479 23.5451 27.9277 23.5451 28.2727V30.7499H20.7415V28.4283H19.9769V30.7499H17.7911V28.4283H17.0266V30.7499H15.4294ZM20.6039 23.3553L24.2846 21.2851L27.9658 23.3553H20.6039ZM19.4108 22.5916V18.2248H29.1581V22.5916L24.2846 19.8504L19.4108 22.5916ZM19.4108 16.9748V14.1328L22.1372 14.213V16.9748H19.4108ZM26.4324 16.9748V14.213L29.1581 14.1328V16.9748H26.4324ZM23.3868 16.9748V12.9991L22.1722 12.9633C22.4421 12.6468 22.6141 12.2497 22.649 11.8111H25.9197C25.9547 12.2497 26.1267 12.6468 26.3971 12.9633L25.1824 12.9991V16.9748H23.3868ZM20.6323 12.4338C20.2003 12.4338 19.8488 12.0823 19.8488 11.6507C19.8488 11.5373 20.1416 11.2354 20.3163 11.0544C20.4189 10.9492 20.5267 10.8375 20.6323 10.7176C20.7375 10.8375 20.8453 10.9492 20.948 11.0544C21.1226 11.2354 21.4154 11.5373 21.4154 11.6507C21.4154 12.0823 21.0635 12.4338 20.6323 12.4338ZM27.9369 12.4338C27.5052 12.4338 27.1539 12.0823 27.1539 11.6507C27.1539 11.5373 27.4462 11.2354 27.6208 11.0544C27.7234 10.9492 27.8312 10.8375 27.9369 10.7176C28.0421 10.8375 28.1503 10.9492 28.2526 11.0544C28.4276 11.2354 28.72 11.5373 28.72 11.6507C28.72 12.0823 28.3685 12.4338 27.9369 12.4338ZM24.1703 8.15704C23.7387 8.15704 23.3868 7.80573 23.3868 7.37408C23.3868 7.26068 23.6796 6.95831 23.8543 6.77765C23.9569 6.67206 24.0647 6.56036 24.1703 6.44086C24.2756 6.56036 24.3834 6.67206 24.486 6.77765C24.6611 6.95831 24.9534 7.26068 24.9534 7.37408C24.9534 7.80573 24.602 8.15704 24.1703 8.15704ZM24.5524 1.95343H23.7879V2.83002H23.2415V3.59454H23.7879V4.48822V5.03607H23.5451C23.5451 5.0672 23.541 5.09906 23.5331 5.13141C23.4746 5.37311 23.2117 5.64435 22.957 5.9079C22.7317 6.14032 22.4891 6.39081 22.3268 6.68304H22.3267C22.2119 6.88983 22.1372 7.11737 22.1372 7.37408C22.1372 8.2757 22.731 9.03326 23.5451 9.29889V10.5611H22.1873C22.0764 10.4295 21.96 10.3036 21.8453 10.185C21.5564 9.88617 21.2571 9.57745 21.2571 9.31268H21.0144V7.87115H21.5607V7.10675H21.0144V6.22968H20.2499V7.10675H19.7036V7.87115H20.2499V9.31268H20.0071C20.0071 9.57745 19.7078 9.88617 19.4185 10.185C19.0343 10.5814 18.5988 11.0311 18.5988 11.6507C18.5988 12.1104 18.7574 12.5295 19.0157 12.8705L18.1611 12.8455V23.2949L18.0533 23.3553H14.1794V30.7499H13.1674V32H14.1794H33.7577H34.8327V30.7499H33.7577V23.3553H30.5155L30.4081 23.2949V13.1131V13.1111V12.8455L30.1228 12.8539H30.1209L29.553 12.8705C29.6326 12.7653 29.7028 12.6525 29.7618 12.5335C29.762 12.5331 29.7622 12.5328 29.7622 12.5328C29.8942 12.2661 29.97 11.968 29.97 11.6507C29.97 11.0311 29.5345 10.5814 29.1503 10.185C28.861 9.88617 28.5617 9.57745 28.5617 9.31268H28.319V8.73822V7.87115H28.8657V7.50787V7.10675H28.319V6.22968H27.5544V6.85223V7.10675H27.0085V7.69574V7.87115H27.2328H27.5544V8.12482V9.31268H27.3116C27.3116 9.54156 27.088 9.80341 26.8408 10.0632C26.8406 10.0634 26.8403 10.0635 26.8403 10.0635C26.8016 10.1043 26.7625 10.1447 26.7235 10.185C26.6088 10.3036 26.4924 10.4295 26.3811 10.5611H24.7952V9.29889C25.0291 9.2226 25.2448 9.10577 25.4335 8.95648C25.4335 8.95648 25.4338 8.95624 25.434 8.95612C25.902 8.58588 26.2035 8.01654 26.2035 7.37408C26.2035 7.25848 26.1884 7.14886 26.1612 7.04437C26.0428 6.58856 25.6963 6.23065 25.3837 5.9079C25.3359 5.85858 25.2878 5.8089 25.2408 5.75909C25.0036 5.50824 24.7952 5.25665 24.7952 5.03607H24.5524V4.565V3.59454H25.0983V2.83002H24.5524V1.95343Z" fill="#B3B3B3"/>
<path d="M17.7911 25.3828H17.0266V27.3413H17.7911V25.3828Z" fill="#B3B3B3"/>
<path d="M20.7415 25.3828H19.9769V27.3413H20.7415V25.3828Z" fill="#B3B3B3"/>
<path d="M28.1555 25.3828H27.391V27.3413H28.1555V25.3828Z" fill="#B3B3B3"/>
<path d="M31.1058 25.3828H30.3413V27.3413H31.1058V25.3828Z" fill="#B3B3B3"/>
<path d="M21.0144 14.9024H20.2499V16.4608H21.0144V14.9024Z" fill="#B3B3B3"/>
<path d="M21.0144 18.5991H20.2499V20.4576H21.0144V18.5991Z" fill="#B3B3B3"/>
<path d="M28.319 14.9024H27.5544V16.4608H28.319V14.9024Z" fill="#B3B3B3"/>
<path d="M28.319 18.5991H27.5544V20.4576H28.319V18.5991Z" fill="#B3B3B3"/>
<path d="M24.1703 24.852C23.5679 24.852 23.0781 25.3419 23.0781 25.9438C23.0781 26.5457 23.5679 27.0356 24.1703 27.0356C24.7723 27.0356 25.2621 26.5457 25.2621 25.9438C25.2621 25.3419 24.7723 24.852 24.1703 24.852Z" fill="#B3B3B3"/>
</svg>
